HIERARCHY
ROOT Hips
{
	OFFSET	0.00	0.00	0.00
	CHANNELS 6 Xposition Yposition Zposition Zrotation Xrotation Yrotation
	JOINT LeftUpLeg
	{
		OFFSET	 0.126116	-0.014019	-0.065224
		CHANNELS 3 Zrotation Xrotation Yrotation
		JOINT LeftLeg
		{
			OFFSET	 0.000000	 0.000000	 0.569914
			CHANNELS 3 Zrotation Xrotation Yrotation
			JOINT LeftFoot
			{
				OFFSET	 0.000000	 0.000000	 0.544423
				CHANNELS 3 Zrotation Xrotation Yrotation
				JOINT LeftToeBase
				{
					OFFSET	 0.000000	 0.000000	 0.207117
					CHANNELS 3 Zrotation Xrotation Yrotation
					End Site
					{
						OFFSET	 0.000000	 0.000000	 0.207117
					}
				}
			}
		}
	}
	JOINT RightUpLeg
	{
		OFFSET	-0.124023	-0.008373	-0.065224
		CHANNELS 3 Zrotation Xrotation Yrotation
		JOINT RightLeg
		{
			OFFSET	 0.000000	 0.000000	 0.570047
			CHANNELS 3 Zrotation Xrotation Yrotation
			JOINT RightFoot
			{
				OFFSET	 0.000000	 0.000000	 0.544354
				CHANNELS 3 Zrotation Xrotation Yrotation
				JOINT RightToeBase
				{
					OFFSET	 0.000000	 0.000000	 0.207540
					CHANNELS 3 Zrotation Xrotation Yrotation
					End Site
					{
						OFFSET	 0.000000	 0.000000	 0.207540
					}
				}
			}
		}
	}
	JOINT Spine
	{
		OFFSET	 0.000184	-0.007763	 0.117403
		CHANNELS 3 Zrotation Xrotation Yrotation
		JOINT Spine1
		{
			OFFSET	 0.000000	 0.000000	 0.137269
			CHANNELS 3 Zrotation Xrotation Yrotation
			JOINT Spine2
			{
				OFFSET	 0.000000	 0.000000	 0.156879
				CHANNELS 3 Zrotation Xrotation Yrotation
				JOINT LeftShoulder
				{
					OFFSET	 0.080501	-0.002496	 0.160144
					CHANNELS 3 Zrotation Xrotation Yrotation
					JOINT LeftArm
					{
						OFFSET	 0.000000	 0.000000	 0.164363
						CHANNELS 3 Zrotation Xrotation Yrotation
						JOINT LeftForeArm
						{
							OFFSET	 0.000000	 0.000000	 0.364576
							CHANNELS 3 Zrotation Xrotation Yrotation
							JOINT LeftHand
							{
								OFFSET	 0.000000	 0.000000	 0.360812
								CHANNELS 3 Zrotation Xrotation Yrotation
								JOINT LeftHandIndex1
								{
									OFFSET	 0.000000	 0.000000	 0.086006
									CHANNELS 3 Zrotation Xrotation Yrotation
									JOINT LeftHandIndex2
									{
										OFFSET	 0.000000	 0.000000	 0.047237
										CHANNELS 3 Zrotation Xrotation Yrotation
										JOINT LeftHandIndex3
										{
											OFFSET	-0.004284	-0.000551	 0.038165
											CHANNELS 3 Zrotation Xrotation Yrotation
											End Site
											{
												OFFSET	-0.004284	-0.000551	 0.038165
											}
										}
									}
								}
							}
						}
					}
				}
				JOINT Neck
				{
					OFFSET	 0.000000	 0.000000	 0.176489
					CHANNELS 3 Zrotation Xrotation Yrotation
					JOINT Head
					{
						OFFSET	 0.000000	-0.001747	 0.077940
						CHANNELS 3 Zrotation Xrotation Yrotation
						End Site
						{
							OFFSET	 0.000000	-0.001747	 0.077940
						}
					}
				}
				JOINT RightShoulder
				{
					OFFSET	-0.080363	 0.000306	 0.159706
					CHANNELS 3 Zrotation Xrotation Yrotation
					JOINT RightArm
					{
						OFFSET	 0.000000	 0.000000	 0.164196
						CHANNELS 3 Zrotation Xrotation Yrotation
						JOINT RightForeArm
						{
							OFFSET	 0.000000	 0.000000	 0.365611
							CHANNELS 3 Zrotation Xrotation Yrotation
							JOINT RightHand
							{
								OFFSET	 0.000000	 0.000000	 0.360648
								CHANNELS 3 Zrotation Xrotation Yrotation
								JOINT RightHandIndex1
								{
									OFFSET	 0.000000	 0.000000	 0.069977
									CHANNELS 3 Zrotation Xrotation Yrotation
									JOINT RightHandIndex2
									{
										OFFSET	 0.000000	 0.000000	 0.052305
										CHANNELS 3 Zrotation Xrotation Yrotation
										JOINT RightHandIndex3
										{
											OFFSET	 0.009002	-0.000782	 0.042196
											CHANNELS 3 Zrotation Xrotation Yrotation
											End Site
											{
												OFFSET	 0.009002	-0.000782	 0.042196
											}
										}
									}
								}
							}
						}
					}
				}
			}
		}
	}
}
MOTION
Frames:    8
Frame Time: 0.03333334
-0.719832	-0.006552	 1.271325	-176.110900	-6.996014	 0.155613	 1.969088	 4.306010	 178.776800	-6.393690	-15.040460	-2.050982	 2.744169	 73.451400	-10.400490	-2.385833	 28.452760	 0.000004	 0.309963	 5.739161	 179.052500	 3.571145	-14.375960	 0.942677	-4.138372	 72.714290	 9.553571	 2.384659	 28.388700	-0.000001	-1.243595	 7.536387	-2.686733	 0.327764	 11.369740	 7.344990	-7.030485	-9.971382	-7.953235	-91.776150	 78.527360	 180.000000	-9.428075	 13.387650	 19.715870	-16.232210	-4.675113	-65.178760	-2.422045	-21.859810	-2.537330	-4.130354	 21.526190	 0.991307	-5.167926	 0.731697	 3.519349	-1.378229	 35.397820	-2.634230	-9.253614	 1.365331	 4.867130	-6.457802	-17.313040	-6.898136	 89.782060	 78.203900	-180.000000	 22.161560	 6.894948	-13.318990	 10.316650	-3.080119	 62.820500	 49.558320	 33.271310	-3.167611	 5.716295	 19.173350	-3.684826	 5.027458	 0.246833	-9.377971	-2.350882	 35.473990	 5.254307
-0.719994	-0.006705	 1.270604	-176.041200	-7.106182	-0.008242	 2.030601	 3.882992	 178.736200	-6.506487	-16.739240	-2.309190	 1.348290	 74.698400	-8.887418	-2.385833	 28.452760	 0.000004	 0.385772	 5.756361	 179.220600	 3.595218	-15.558760	 1.024863	-4.641207	 73.776600	 10.043350	 2.384659	 28.388700	-0.000001	-1.850701	 7.722257	-2.450330	-0.169046	 10.475260	 7.137712	-6.865717	-9.357073	-7.727892	-91.776210	 78.527420	-180.000000	-10.059450	 20.115100	 23.826670	-16.930400	-5.247199	-74.420430	-2.505637	-21.879860	-2.557153	-4.130354	 21.526190	 0.991307	-5.167926	 0.731697	 3.519349	-1.378229	 35.397820	-2.634230	-9.171999	 1.244989	 4.821715	-6.391966	-17.066440	-6.817882	 89.782160	 78.203900	 179.999900	 19.494140	 12.018120	-16.905110	 10.859850	-3.370498	 72.884060	 48.438800	 28.297400	-0.864653	 5.716295	 19.173350	-3.684826	 5.027458	 0.246833	-9.377971	-2.350882	 35.473990	 5.254307
-0.720155	-0.006844	 1.269911	-176.041900	-7.153828	-0.194103	 2.197124	 3.524020	 178.704300	-6.634457	-18.167720	-2.540268	-0.404007	 75.647660	-6.979987	-2.385833	 28.452760	 0.000004	 0.586980	 5.737557	 179.386100	 3.554670	-16.637520	 1.082307	-5.371028	 74.798030	 10.839340	 2.384659	 28.388700	-0.000001	-2.403277	 7.822978	-2.120497	-0.650423	 9.596214	 6.782590	-6.654387	-8.737808	-7.428059	-91.776120	 78.527380	 180.000000	-10.559510	 26.831530	 26.767890	-17.533990	-5.495321	-81.121170	-2.649577	-21.934380	-2.568655	-4.130354	 21.526190	 0.991307	-5.167926	 0.731697	 3.519349	-1.378229	 35.397820	-2.634230	-9.011708	 1.010210	 4.677063	-6.274890	-16.722920	-6.442280	 89.782090	 78.203890	 180.000000	 16.353920	 17.083070	-19.049590	 11.295310	-3.655817	 80.646860	 45.965450	 24.127350	 2.102333	 5.716295	 19.173350	-3.684826	 5.027458	 0.246833	-9.377971	-2.350882	 35.473990	 5.254307
-0.720429	-0.007184	 1.268207	-176.060400	-7.247326	-0.332000	 2.407014	 2.663567	 178.286800	-6.896439	-21.683970	-3.107989	-5.514745	 78.255560	-1.593728	-2.385833	 28.452760	 0.000004	 0.932744	 6.108781	 179.487800	 3.440715	-18.512850	 1.163904	-6.538223	 76.838670	 12.115800	 2.384659	 28.388700	-0.000001	-3.768797	 8.141013	-1.799134	-1.922136	 7.147056	 5.966519	-6.153983	-6.953614	-6.665649	-91.776170	 78.527420	 180.000000	-10.214640	 45.084780	 29.696080	-18.367050	-5.844402	-89.763600	-2.799366	-21.939330	-2.602038	-4.130354	 21.526190	 0.991307	-5.167926	 0.731697	 3.519349	-1.378229	 35.397820	-2.634230	-8.714524	 0.669801	 4.553003	-6.038079	-15.947080	-6.174094	 89.782100	 78.203870	 180.000000	 5.894658	 31.016000	-18.653740	 12.190740	-4.418149	 93.806500	 35.781650	 14.146610	 9.848265	 5.716295	 19.173350	-3.684826	 5.027458	 0.246833	-9.377971	-2.350882	 35.473990	 5.254307
-0.720721	-0.008037	 1.264926	-176.081500	-6.860177	 0.279721	 2.695659	 0.687741	 176.326800	-7.259876	-28.496460	-4.187011	-26.496150	 83.116470	 19.703620	-2.385833	 28.452760	 0.000004	 1.728577	 7.515153	 178.744000	 3.224794	-20.360630	 1.199960	-7.272298	 80.281950	 12.905470	 2.384659	 28.388700	-0.000001	-6.908368	 9.293409	-2.092576	-5.023674	-0.435296	 3.077861	-4.927451	-1.475921	-4.243098	-91.776190	 78.527380	-180.000000	 20.476600	 75.211330	-14.264440	-15.332110	-5.696853	-61.703770	-2.638269	-21.901970	-2.652172	-4.130354	 21.526190	 0.991307	-5.167926	 0.731697	 3.519349	-1.378229	 35.397820	-2.634230	-7.806114	 0.033873	 4.093565	-5.399879	-13.893590	-5.904478	 89.782100	 78.203920	 180.000000	-40.827080	 54.096700	 23.149060	 11.819440	-6.589468	 89.323760	 4.390522	-5.650970	 26.265860	 5.716295	 19.173350	-3.684826	 5.027458	 0.246833	-9.377971	-2.350882	 35.473990	 5.254307
-0.721481	-0.008542	 1.264646	-176.443300	-6.240837	-0.057438	 3.614299	-0.074726	 176.095200	-7.493740	-30.133680	-4.524333	-35.517680	 83.749470	 28.956280	-2.385833	 28.452760	 0.000004	 2.529703	 7.287915	 179.058100	 3.191119	-21.610350	 1.257731	-7.525813	 82.193630	 13.114870	 2.384659	 28.388700	-0.000001	-8.018218	 10.179990	-1.561222	-6.537040	-5.571201	 1.345317	-4.334222	 2.403364	-2.915419	-91.776170	 78.527400	 180.000000	 32.149390	 74.404050	-49.295380	-12.410140	-1.622226	-15.120870	-2.689506	-22.254610	-2.608895	-4.130354	 21.526190	 0.991307	-5.167926	 0.731697	 3.519349	-1.378229	 35.397820	-2.634230	-7.175039	-0.344138	 3.660325	-4.968313	-12.472320	-5.622293	 89.782070	 78.203920	-180.000000	-61.443840	 52.868740	 48.193210	 10.222500	-7.371046	 77.163030	-5.057253	-12.724570	 31.905600	 5.716295	 19.173350	-3.684826	 5.027458	 0.246833	-9.377971	-2.350882	 35.473990	 5.254307
-0.723699	-0.008812	 1.267594	-177.379400	-5.618471	-0.057960	 4.858852	-0.667574	 176.300300	-8.004464	-29.885800	-4.750190	-36.855050	 84.646680	 30.585070	-2.385833	 28.452760	 0.000004	 3.867842	 6.191044	 179.158200	 2.965826	-21.917730	 1.190403	-5.714523	 82.022620	 11.476650	 2.384659	 28.388700	-0.000001	-7.412998	 11.716540	-1.613908	-7.009763	-10.645760	 0.581026	-3.933203	 7.010165	-2.109137	-91.776180	 78.527420	-180.000000	 32.010890	 73.138210	-45.621730	-13.355200	-2.046162	-22.057110	-2.440019	-22.553920	-2.561991	-4.130354	 21.526190	 0.991307	-5.167926	 0.731697	 3.519349	-1.378229	 35.397820	-2.634230	-6.609112	-0.700760	 3.081713	-4.606661	-10.291430	-4.859844	 89.782100	 78.203870	-180.000000	-60.022690	 51.145580	 45.081930	 11.555800	-8.712164	 87.748190	-7.402891	-8.142933	 23.562630	 5.716295	 19.173350	-3.684826	 5.027458	 0.246833	-9.377971	-2.350882	 35.473990	 5.254307
-0.725787	-0.010795	 1.270647	-177.595200	-4.981717	 0.557588	 5.439089	-1.707090	 175.947300	-8.303561	-29.886830	-4.902573	-36.180730	 85.080990	 30.069700	-2.385833	 28.452760	 0.000004	 4.496929	 5.273169	 178.647100	 2.673525	-21.322440	 1.053065	-4.002452	 81.279790	 9.998418	 2.384659	 28.388700	-0.000001	-7.258543	 13.482300	-2.437679	-7.289191	-15.197690	-0.134357	-3.604523	 11.196650	-1.243500	-91.776180	 78.527330	-180.000000	 30.449680	 72.438220	-36.786340	-14.547680	-2.882480	-36.816450	-2.263817	-22.900650	-2.507312	-4.130354	 21.526190	 0.991307	-5.167926	 0.731697	 3.519349	-1.378229	 35.397820	-2.634230	-5.963167	-0.509359	 2.295486	-4.222768	-8.819572	-3.849695	 89.782080	 78.203900	-180.000000	-54.785800	 49.454190	 38.925270	 13.296420	-9.411444	 98.496350	-6.952168	-1.983266	 15.715360	 5.716295	 19.173350	-3.684826	 5.027458	 0.246833	-9.377971	-2.350882	 35.473990	 5.254307
